<?xml version="1.0" standalone="no"?>
<!DOCTYPE svg PUBLIC "-//W3C//DTD SVG 20010904//EN"
 "http://www.w3.org/TR/2001/REC-SVG-20010904/DTD/svg10.dtd">
<svg version="1.0" xmlns="http://www.w3.org/2000/svg"
 width="320.000000pt" height="320.000000pt" viewBox="0 0 320.000000 320.000000"
 preserveAspectRatio="xMidYMid meet">

<g transform="translate(0.000000,320.000000) scale(0.100000,-0.100000)"
fill="#000000" stroke="none">
<path d="M1481 2824 c-37 -26 -28 -70 25 -118 40 -37 45 -47 42 -77 -3 -29 -7
-34 -28 -34 -16 0 -28 8 -35 23 -5 12 -13 22 -18 22 -13 0 3 -43 21 -57 22
-18 39 -16 62 7 34 34 25 67 -30 120 -50 48 -61 75 -38 98 20 20 46 13 56 -15
8 -22 11 -24 11 -8 1 41 -35 62 -68 39z"/>
<path d="M1787 2800 c-29 -23 -57 -101 -57 -160 0 -42 24 -80 50 -80 18 0 60
43 60 61 0 17 -15 9 -25 -13 -15 -34 -53 -36 -65 -4 -16 42 12 158 44 185 27
23 46 6 46 -41 0 -30 3 -39 11 -31 17 17 6 74 -17 90 -18 12 -24 11 -47 -7z"/>
<path d="M1266 2778 c-51 -73 27 -264 93 -228 43 23 47 89 12 182 -24 64 -77
86 -105 46z m67 -16 c23 -25 47 -98 47 -142 0 -41 -19 -64 -47 -58 -23 4 -60
71 -67 123 -12 78 27 122 67 77z"/>
<path d="M1942 2677 c-38 -108 -39 -127 -11 -153 19 -17 23 -17 47 -3 20 11
37 39 64 104 36 87 48 130 30 110 -5 -6 -21 -44 -36 -85 -35 -97 -52 -122 -78
-118 -42 6 -44 30 -9 119 42 108 45 119 35 119 -5 0 -24 -42 -42 -93z"/>
<path d="M1100 2727 c-56 -27 -55 -26 -48 -33 4 -3 15 -1 25 5 17 9 24 -1 65
-92 26 -56 51 -103 57 -105 6 -2 -12 45 -40 104 -50 108 -51 113 -14 127 6 3
8 7 5 9 -3 3 -25 -4 -50 -15z"/>
<path d="M2125 2577 c-33 -56 -61 -105 -63 -109 -4 -8 58 -41 65 -35 2 3 -6
11 -19 18 -12 6 -25 13 -27 15 -2 1 24 48 58 104 34 55 61 103 61 105 0 21
-24 -11 -75 -98z"/>
<path d="M960 2644 c0 -16 131 -217 137 -210 5 5 -126 216 -134 216 -1 0 -3
-3 -3 -6z"/>
<path d="M850 2567 c0 -5 25 -38 56 -74 85 -101 91 -111 71 -131 -16 -15 -19
-14 -47 13 -16 16 -30 24 -30 17 0 -16 41 -52 60 -52 21 0 40 20 40 41 0 23
-148 207 -150 186z"/>
<path d="M2258 2478 c-43 -51 -75 -94 -72 -97 3 -4 16 7 29 23 17 21 28 27 44
21 51 -16 141 34 141 79 0 22 -37 66 -56 66 -5 0 -44 -41 -86 -92z m116 56
c23 -22 20 -36 -13 -68 -23 -22 -36 -27 -71 -24 l-42 3 43 53 c45 55 58 61 83
36z"/>
<path d="M686 2404 c-9 -8 -16 -23 -16 -33 0 -51 108 -151 164 -151 89 0 68
94 -38 167 -53 36 -86 41 -110 17z m109 -34 c36 -25 85 -82 85 -100 0 -3 -6
-14 -13 -24 -20 -27 -66 -13 -120 35 -54 47 -73 91 -50 114 19 19 44 13 98
-25z"/>
<path d="M2430 2400 c-41 -21 -107 -88 -110 -110 -5 -34 1 -50 21 -61 33 -17
88 4 142 53 54 51 68 90 42 118 -22 25 -50 25 -95 0z m93 -13 c14 -37 -59
-121 -127 -147 -34 -12 -66 2 -66 30 0 23 54 86 95 112 35 21 91 24 98 5z"/>
<path d="M566 2236 c-28 -48 -35 -73 -11 -42 15 20 16 20 58 -2 23 -11 70 -37
105 -57 34 -20 62 -32 62 -27 0 4 -19 19 -42 32 -24 12 -69 38 -100 57 -52 31
-57 37 -47 55 22 41 0 27 -25 -16z"/>
<path d="M2565 2226 c-13 -13 -27 -40 -30 -59 -9 -48 -40 -79 -73 -75 -32 4
-42 38 -17 58 22 18 19 33 -4 20 -25 -13 -35 -44 -22 -69 16 -28 45 -34 80
-17 23 12 33 28 45 70 18 60 35 79 68 74 29 -4 36 -37 12 -55 -25 -18 -12 -26
14 -7 28 19 28 49 0 68 -31 22 -45 20 -73 -8z"/>
<path d="M1687 2140 c-3 -11 -3 -20 -1 -20 2 0 8 9 14 20 6 11 7 20 2 20 -6 0
-12 -9 -15 -20z"/>
<path d="M492 2085 c3 -3 50 -21 104 -39 l99 -34 -50 -1 c-78 -2 -185 -13
-185 -20 0 -4 50 -25 112 -46 61 -22 115 -41 120 -43 4 -2 8 0 8 5 0 5 -46 25
-102 45 l-103 37 50 0 c75 1 185 13 185 20 0 7 -209 81 -229 81 -8 0 -12 -2
-9 -5z"/>
<path d="M1710 2080 c-8 -5 -28 -10 -45 -11 -25 0 -27 -2 -10 -8 12 -5 33 -3
55 6 19 8 44 12 56 9 29 -8 47 -57 34 -94 -10 -25 -9 -26 5 -8 34 45 5 116
-49 116 -17 0 -38 -5 -46 -10z"/>
<path d="M1521 2056 c-15 -18 -5 -81 16 -101 14 -15 92 -40 99 -32 2 2 -13 9
-35 15 -21 7 -44 19 -51 27 -11 13 -7 14 32 9 29 -4 48 -2 52 5 5 7 -9 11 -44
11 -44 0 -52 3 -62 25 -8 19 -8 28 2 40 7 8 10 15 7 15 -2 0 -10 -6 -16 -14z"/>
<path d="M2586 2045 c-61 -21 -91 -48 -94 -83 -2 -23 2 -34 19 -42 32 -17 111
-7 166 22 123 63 45 152 -91 103z m115 -5 c10 -6 19 -21 19 -34 0 -49 -167
-108 -203 -71 -35 34 -9 67 75 96 62 21 82 23 109 9z"/>
<path d="M1443 1893 c15 -2 39 -2 55 0 15 2 2 4 -28 4 -30 0 -43 -2 -27 -4z"/>
<path d="M2698 1844 c-16 -8 -28 -19 -28 -23 0 -5 -13 -23 -29 -40 -34 -36
-75 -41 -91 -12 -14 28 -14 29 23 51 26 17 28 20 11 20 -11 0 -29 -9 -39 -20
-15 -16 -17 -26 -9 -48 8 -22 16 -28 47 -30 38 -3 47 3 104 72 23 28 63 35 82
12 15 -18 3 -46 -20 -46 -10 0 -19 -4 -19 -10 0 -15 27 -12 44 6 21 21 20 47
-2 67 -23 21 -39 21 -74 1z"/>
<path d="M630 1844 c-8 -1 -59 -6 -112 -9 -54 -4 -98 -10 -98 -15 0 -4 30 -19
68 -33 37 -14 91 -34 120 -46 28 -11 52 -17 52 -12 0 5 -16 15 -35 21 -23 8
-35 18 -35 30 0 39 11 50 51 50 21 0 39 5 39 10 0 10 -19 11 -50 4z m-54 -59
c-4 -12 -11 -12 -48 0 -74 26 -75 29 -13 35 62 5 74 -2 61 -35z"/>
<path d="M1335 1839 c-4 -6 -5 -12 -2 -15 2 -3 7 2 10 11 7 17 1 20 -8 4z"/>
<path d="M2110 1466 c0 -2 7 -7 16 -10 8 -3 12 -2 9 4 -6 10 -25 14 -25 6z"/>
<path d="M1678 1393 c7 -3 16 -2 19 1 4 3 -2 6 -13 5 -11 0 -14 -3 -6 -6z"/>
<path d="M1804 1258 l-19 -23 23 19 c21 18 27 26 19 26 -2 0 -12 -10 -23 -22z"/>
<path d="M2179 1163 c-13 -16 -12 -17 4 -4 16 13 21 21 13 21 -2 0 -10 -8 -17
-17z"/>
<path d="M1860 1080 c-6 -11 -8 -20 -6 -20 3 0 10 9 16 20 6 11 8 20 6 20 -3
0 -10 -9 -16 -20z"/>
<path d="M1236 1047 c3 -10 9 -15 12 -12 3 3 0 11 -7 18 -10 9 -11 8 -5 -6z"/>
<path d="M1661 974 c0 -11 3 -14 6 -6 3 7 2 16 -1 19 -3 4 -6 -2 -5 -13z"/>
<path d="M704 919 l-19 -22 26 16 c14 10 29 14 32 10 16 -15 5 -33 -25 -42
-22 -6 -26 -9 -12 -10 11 -1 29 5 40 13 15 12 17 19 8 32 -16 26 -28 27 -50 3z"/>
<path d="M1400 920 c6 -11 13 -20 16 -20 2 0 0 9 -6 20 -6 11 -13 20 -16 20
-2 0 0 -9 6 -20z"/>
<path d="M654 879 c-19 -22 -19 -22 4 -8 12 8 22 17 22 21 0 12 -6 9 -26 -13z"/>
<path d="M2507 894 c-4 -4 -7 -12 -7 -18 0 -6 5 -4 10 4 9 13 11 13 21 0 9
-12 10 -12 7 -1 -5 17 -21 25 -31 15z"/>
<path d="M2550 868 c0 -9 -6 -19 -12 -21 -10 -4 -10 -6 0 -6 14 -1 28 26 18
36 -3 4 -6 -1 -6 -9z"/>
<path d="M2455 819 c2 -38 24 -54 44 -34 8 8 13 16 10 17 -2 2 -16 13 -30 26
l-26 22 2 -31z m34 -12 c6 -8 8 -17 4 -20 -7 -8 -33 11 -33 24 0 13 16 11 29
-4z"/>
<path d="M710 795 c-11 -13 -10 -14 4 -9 9 3 16 10 16 15 0 13 -6 11 -20 -6z"/>
<path d="M746 793 c-6 -14 -5 -15 5 -6 7 7 10 15 7 18 -3 3 -9 -2 -12 -12z"/>
<path d="M2410 756 c0 -2 8 -10 18 -17 15 -13 16 -12 3 4 -13 16 -21 21 -21
13z"/>
<path d="M1598 723 c7 -3 16 -2 19 1 4 3 -2 6 -13 5 -11 0 -14 -3 -6 -6z"/>
<path d="M2370 721 c0 -6 4 -13 10 -16 6 -3 7 1 4 9 -7 18 -14 21 -14 7z"/>
<path d="M2340 706 c0 -2 7 -7 16 -10 8 -3 12 -2 9 4 -6 10 -25 14 -25 6z"/>
<path d="M835 680 c-3 -5 -1 -10 4 -10 6 0 11 5 11 10 0 6 -2 10 -4 10 -3 0
-8 -4 -11 -10z"/>
<path d="M925 650 c-3 -5 -1 -10 4 -10 6 0 11 5 11 10 0 6 -2 10 -4 10 -3 0
-8 -4 -11 -10z"/>
<path d="M2155 636 c10 -14 19 -26 22 -26 7 0 -17 39 -28 46 -6 3 -3 -5 6 -20z"/>
<path d="M2246 632 c-9 -14 6 -52 20 -52 19 0 28 20 15 33 -9 9 -11 8 -6 -5 4
-10 3 -18 -3 -18 -12 0 -24 29 -16 41 3 5 3 9 0 9 -3 0 -7 -4 -10 -8z"/>
<path d="M907 623 c-10 -9 -9 -33 1 -33 4 0 8 9 8 20 0 23 0 22 -9 13z"/>
<path d="M995 581 c-3 -12 -13 -21 -21 -21 -9 0 -12 5 -8 12 4 7 3 8 -5 4 -14
-9 -5 -26 14 -26 15 0 40 38 32 47 -3 2 -8 -5 -12 -16z"/>
<path d="M2195 570 c9 -16 18 -30 21 -30 2 0 -2 14 -11 30 -9 17 -18 30 -21
30 -2 0 2 -13 11 -30z"/>
<path d="M1051 550 c0 -8 4 -22 9 -30 12 -18 12 -2 0 25 -6 13 -9 15 -9 5z"/>
<path d="M2062 495 c6 -14 13 -24 14 -22 6 6 -9 47 -17 47 -5 0 -3 -11 3 -25z"/>
<path d="M1202 487 c0 -7 -3 -23 -6 -37 -4 -14 -3 -18 0 -10 4 8 11 23 15 32
5 9 5 19 1 22 -5 3 -9 0 -10 -7z"/>
<path d="M1692 475 c0 -16 2 -22 5 -12 2 9 2 23 0 30 -3 6 -5 -1 -5 -18z"/>
<path d="M2001 476 c7 -15 15 -23 17 -16 3 7 -3 19 -13 28 -15 16 -16 15 -4
-12z"/>
<path d="M1256 455 c-3 -9 -6 -22 -5 -28 0 -7 5 -1 10 12 5 13 8 26 5 28 -2 2
-6 -3 -10 -12z"/>
<path d="M1347 443 c-4 -3 -7 -15 -7 -26 0 -25 9 -17 15 12 4 22 2 25 -8 14z"/>
<path d="M1911 424 c0 -11 3 -14 6 -6 3 7 2 16 -1 19 -3 4 -6 -2 -5 -13z"/>
<path d="M1580 420 c0 -5 7 -7 15 -4 8 4 15 8 15 10 0 2 -7 4 -15 4 -8 0 -15
-4 -15 -10z"/>
<path d="M1664 415 c-13 -33 24 -63 42 -34 4 8 -1 9 -16 4 -20 -6 -22 -4 -18
19 6 28 1 35 -8 11z"/>
<path d="M1851 414 c0 -11 3 -14 6 -6 3 7 2 16 -1 19 -3 4 -6 -2 -5 -13z"/>
<path d="M1515 410 c-3 -5 -1 -10 4 -10 6 0 11 5 11 10 0 6 -2 10 -4 10 -3 0
-8 -4 -11 -10z"/>
<path d="M1760 390 c0 -5 5 -10 11 -10 5 0 7 5 4 10 -3 6 -8 10 -11 10 -2 0
-4 -4 -4 -10z"/>
<path d="M1497 379 c7 -7 15 -10 18 -7 3 3 -2 9 -12 12 -14 6 -15 5 -6 -5z"/>
</g>
</svg>
